<?xml version="1.0" standalone="no"?><!DOCTYPE svg PUBLIC "-//W3C//DTD SVG 1.1//EN" "http://www.w3.org/Graphics/SVG/1.1/DTD/svg11.dtd"><svg t="1776482816409" class="icon" viewBox="0 0 1024 1024" version="1.1" xmlns="http://www.w3.org/2000/svg" p-id="17140" xmlns:xlink="http://www.w3.org/1999/xlink" width="64" height="64"><path d="M506.88 599.04l46.08 117.76H640L471.04 307.2h-76.8L235.52 716.8h81.92l40.96-117.76h148.48zM424.96 435.2l5.12-20.48 5.12-5.12 5.12 15.36 40.96 112.64h-92.16l35.84-102.4z m307.2-128h-76.8v409.6h76.8V307.2z" p-id="17141"></path><path d="M972.8 430.131l-5.12-5.12v-143.36c-5.12-25.6-20.48-51.2-46.08-61.44l-363.52-204.8-10.24-5.12c-25.6-15.36-56.32-10.24-81.92 0L102.4 220.211l-10.24 5.12c-20.48 15.36-35.84 40.96-35.84 71.68v51.2c0 5.12 0 10.24 5.12 15.36 0 5.12 5.12 10.24 10.24 10.24 5.12 5.12 10.24 5.12 10.24 5.12h15.36c5.12 0 5.12 0 10.24-5.12l10.24-10.24c0-5.12 5.12-10.24 5.12-15.36v-61.44c0-5.12 5.12-10.24 10.24-15.36l368.64-204.8H512c5.12 0 10.24 0 15.36 5.12l363.52 204.8H896l5.12 5.12 5.12 5.12c0 5.12 5.12 10.24 5.12 15.36v133.12l-10.24 5.12-10.24 5.12-30.72 30.72c-5.12 10.24-10.24 25.6-10.24 40.96s5.12 30.72 10.24 40.96c5.12 15.36 15.36 25.6 25.6 30.72 10.24 10.24 25.6 15.36 40.96 15.36s30.72 0 40.96-5.12c15.36-5.12 25.6-15.36 35.84-25.6 10.24-10.24 15.36-25.6 20.48-35.84v-20.48c0-35.84-20.48-71.68-51.2-87.04z m-35.84 117.76c-20.48 0-35.84-15.36-35.84-35.84 0-20.48 15.36-35.84 35.84-35.84 20.48 0 35.84 15.36 35.84 35.84 5.12 20.48-15.36 35.84-35.84 35.84z m30.72 133.069c-5.12-15.36-15.36-25.6-30.72-25.6h-10.24c-15.36 5.12-20.48 15.36-20.48 30.72v51.2c0 5.12-5.12 10.24-10.24 15.36l-363.52 204.8h-10.24c-5.12 0-10.24 0-15.36-5.12l-368.64-204.8h-5.12L128 742.4l-5.12-5.12c0-5.12-5.12-10.24-5.12-15.36V588.8h5.12l10.24-5.12c20.48-5.12 30.72-20.48 40.96-35.84 10.24-20.48 10.24-40.96 5.12-56.32s-20.48-40.96-35.84-51.2c-15.36-10.24-35.84-20.48-51.2-20.48H71.68c-15.36 5.12-30.72 15.36-40.96 25.6-15.36 10.24-20.48 25.6-25.6 40.96v20.48c0 15.36 5.12 35.84 10.24 51.2 10.24 15.36 20.48 25.6 35.84 35.84l5.12 5.12V742.4c0 15.36 5.12 25.6 15.36 40.96 10.24 15.36 20.48 20.48 30.72 30.72l368.64 204.8 10.24 5.12h35.84c15.36 0 25.6-5.12 40.96-10.24l363.52-204.8 10.24-5.12c25.6-15.36 35.84-46.08 35.84-71.68v-51.2zM92.16 547.84c-20.48 0-40.96-15.36-40.96-35.84 0-20.48 15.36-35.84 35.84-35.84 20.48 0 35.84 15.36 35.84 35.84 0 20.48-10.24 35.84-30.72 35.84z" p-id="17142"></path></svg>