<svg t="1754415476914" class="icon" viewBox="0 0 1024 1024" version="1.1" xmlns="http://www.w3.org/2000/svg" p-id="61975" width="32" height="32"><path d="M47.324666 208.021846h124.80095v55.987177a60.789552 60.789552 0 0 0 121.579104 0v-55.987177h682.970614a45.592164 45.592164 0 0 0 0-91.184327H293.70472V60.789552a60.789552 60.789552 0 0 0-121.579104 0v56.047967H47.324666a45.592164 45.592164 0 0 0 0 91.184327z" p-id="61976"></path><path d="M976.675334 466.438231H899.594182v-56.047967a60.789552 60.789552 0 0 0-121.579103 0v56.047967H47.324666a45.592164 45.592164 0 0 0 0 91.184328h730.447254v55.987177a60.789552 60.789552 0 1 0 121.579104 0v-55.987177h77.32431a45.592164 45.592164 0 1 0 0-91.184328z" p-id="61977"></path><path d="M976.675334 816.038943H424.827783v-56.047966a60.789552 60.789552 0 0 0-121.579104 0v56.047966H47.567824a45.592164 45.592164 0 0 0 0 91.184328H303.248679v55.987177a60.789552 60.789552 0 0 0 121.579104 0v-55.987177h551.847551a45.592164 45.592164 0 1 0 0-91.184328z" p-id="61978"></path></svg>