<svg t="1754415384364" class="icon" viewBox="0 0 1024 1024" version="1.1" xmlns="http://www.w3.org/2000/svg" p-id="57343" width="32" height="32"><path d="M585.301 680.856c59.719 0 108.13 48.386 108.13 108.072 0 59.687-48.411 108.072-108.13 108.072h-179.45c-59.72 0-108.131-48.385-108.131-108.072 0-59.686 48.412-108.072 108.13-108.072h179.451z m165.615-159.955c0.716-16.493 14.675-29.283 31.177-28.567 78.37 3.399 140.842 68.814 151.36 148 11.265 84.804-39.42 157.479-138.745 179.376l1.457 41.696a6.9 6.9 0 0 1-11.163 5.663l-82.064-64.601a6.9 6.9 0 0 1-0.368-10.533l77.344-70.152a6.9 6.9 0 0 1 11.532 4.87l1.124 31.997c61.381-17.217 88.38-59.304 81.587-110.448-6.904-51.977-47.11-94.078-94.658-96.14l-0.715-0.04c-16.155-1.081-28.574-14.866-27.868-31.12zM585.3 414.126c59.719 0 108.13 48.385 108.13 108.072 0 59.686-48.411 108.071-108.13 108.071h-179.45c-59.72 0-108.131-48.385-108.131-108.071 0-59.687 48.412-108.072 108.13-108.072h179.451z m-315.217-178.35c0.706 16.254-11.713 30.04-27.868 31.12l-0.715 0.04c-47.547 2.062-87.754 44.163-94.658 96.14-5.816 43.788 13.138 80.937 57.234 101.523l1.02-29.111a6.9 6.9 0 0 1 11.532-4.87l77.344 70.152a6.9 6.9 0 0 1-0.368 10.533l-82.063 64.601a6.9 6.9 0 0 1-11.164-5.663l1.48-42.373c-83.116-27.714-124.612-95.116-114.312-172.66 10.519-79.186 72.991-144.6 151.361-148 16.502-0.716 30.46 12.074 31.177 28.568zM585.301 129c59.719 0 108.13 48.385 108.13 108.072 0 59.686-48.411 108.072-108.13 108.072h-179.45c-59.72 0-108.131-48.386-108.131-108.072C297.72 177.385 346.132 129 405.85 129h179.451z" fill="#333333" p-id="57344"></path></svg>