<svg t="1754381164099" class="icon" viewBox="0 0 1024 1024" version="1.1" xmlns="http://www.w3.org/2000/svg" p-id="23028" width="32" height="32"><path d="M352 115.2c70.4-32 147.2-38.4 224-25.6 76.8 12.8 147.2 38.4 204.8 89.6 38.4 32 76.8 76.8 102.4 121.6-6.4 12.8-12.8 25.6-12.8 38.4 0 44.8 32 76.8 76.8 76.8S1024 384 1024 339.2c0-51.2-32-83.2-76.8-83.2h-12.8c-32-51.2-70.4-96-115.2-134.4C748.8 64 672 32 582.4 19.2 499.2 6.4 409.6 19.2 326.4 51.2c-83.2 38.4-153.6 89.6-204.8 160l51.2 38.4c44.8-57.6 108.8-108.8 179.2-134.4zM940.8 467.2c0 25.6 6.4 51.2 0 76.8-6.4 70.4-25.6 140.8-64 198.4-38.4 57.6-89.6 108.8-153.6 147.2-32 19.2-70.4 32-108.8 38.4-12.8-32-38.4-57.6-76.8-57.6-44.8 0-76.8 32-76.8 76.8S492.8 1024 537.6 1024c25.6 0 44.8-12.8 57.6-25.6 51.2-6.4 102.4-25.6 153.6-51.2 70.4-38.4 134.4-96 179.2-166.4 44.8-70.4 70.4-147.2 76.8-230.4V460.8l-64 6.4zM128 697.6c-32-57.6-44.8-128-44.8-192 0-32 6.4-64 12.8-96 32-12.8 57.6-38.4 57.6-76.8 0-44.8-32-76.8-76.8-76.8S0 288 0 332.8c0 25.6 12.8 51.2 32 64-6.4 32-12.8 70.4-12.8 108.8 0 76.8 12.8 153.6 51.2 224 32 70.4 83.2 128 140.8 179.2 57.6 44.8 134.4 76.8 204.8 96l12.8-64c-64-12.8-128-38.4-179.2-83.2-51.2-44.8-96-102.4-121.6-160z" p-id="23029" fill="#707070"></path><path d="M646.4 435.2V281.6L512 204.8 377.6 281.6v153.6L512 512l134.4-76.8zM441.6 320L512 281.6l70.4 38.4v76.8L512 435.2l-70.4-38.4V320zM224 537.6v153.6L358.4 768l134.4-76.8V537.6L358.4 460.8 224 537.6z m204.8 115.2l-70.4 38.4-70.4-38.4V576l70.4-38.4 70.4 38.4v76.8zM800 691.2V537.6l-134.4-76.8-134.4 76.8v153.6l134.4 76.8 134.4-76.8zM595.2 576l70.4-38.4 70.4 38.4v76.8l-70.4 38.4-70.4-38.4V576z" p-id="23030" fill="#707070"></path></svg>