<svg t="1754381036067" class="icon" viewBox="0 0 1024 1024" version="1.1" xmlns="http://www.w3.org/2000/svg" p-id="15730" width="32" height="32"><path d="M928 64a32 32 0 0 1 32 32v192a32 32 0 0 1-32 32H96a32 32 0 0 1-32-32V96a32 32 0 0 1 32-32h832z m-32 64H128v128h768V128zM928 384a32 32 0 0 1 32 32v192a32 32 0 0 1-32 32H96a32 32 0 0 1-32-32v-192a32 32 0 0 1 32-32h832z m-32 64H128v128h768v-128zM928 704a32 32 0 0 1 32 32v192a32 32 0 0 1-32 32H96a32 32 0 0 1-32-32v-192a32 32 0 0 1 32-32h832z m-32 64H128v128h768v-128z" fill="#515151" p-id="15731"></path><path d="M768 160m32 0l0 0q32 0 32 32l0 0q0 32-32 32l0 0q-32 0-32-32l0 0q0-32 32-32Z" fill="#515151" p-id="15732"></path><path d="M768 480m32 0l0 0q32 0 32 32l0 0q0 32-32 32l0 0q-32 0-32-32l0 0q0-32 32-32Z" fill="#515151" p-id="15733"></path><path d="M768 800m32 0l0 0q32 0 32 32l0 0q0 32-32 32l0 0q-32 0-32-32l0 0q0-32 32-32Z" fill="#515151" p-id="15734"></path></svg>