<?xml version="1.0" standalone="no"?><!DOCTYPE svg PUBLIC "-//W3C//DTD SVG 1.1//EN" "http://www.w3.org/Graphics/SVG/1.1/DTD/svg11.dtd"><svg t="1763365280450" class="icon" viewBox="0 0 1024 1024" version="1.1" xmlns="http://www.w3.org/2000/svg" p-id="5652" xmlns:xlink="http://www.w3.org/1999/xlink" width="64" height="64"><path d="M512 298.666667c8.533333 0 17.066667 4.266667 21.333333 8.533333 4.266667 4.266667 8.533333 12.8 8.533334 21.333333v81.066667H682.666667c25.6-55.466667 72.533333-76.8 85.333333-81.066667 17.066667-4.266667 34.133333 4.266667 38.4 21.333334 4.266667 17.066667 0 34.133333-17.066667 38.4 0 0-17.066667 4.266667-34.133333 21.333333h64c8.533333 0 17.066667 4.266667 25.6 12.8l170.666667 243.2c8.533333 8.533333 8.533333 17.066667 8.533333 21.333333v273.066667c0 34.133333-29.866667 64-68.266667 64H64C29.866667 1024 0 998.4 0 960V682.666667c0-4.266667 0-12.8 4.266667-17.066667l170.666666-243.2c4.266667-8.533333 12.8-12.8 25.6-12.8h76.8c-12.8-12.8-25.6-21.333333-29.866666-21.333333-17.066667-4.266667-21.333333-21.333333-17.066667-38.4s21.333333-25.6 38.4-21.333334c25.6 8.533333 46.933333 21.333333 64 42.666667 4.266667 12.8 12.8 25.6 21.333333 38.4h128V328.533333c0-4.266667 0-12.8 4.266667-17.066666l4.266667-4.266667c4.266667-8.533333 12.8-8.533333 21.333333-8.533333z m290.133333 170.666666H725.333333c-4.266667 21.333333-8.533333 51.2 0 89.6 4.266667 17.066667-8.533333 34.133333-25.6 34.133334h-4.266666c-17.066667 0-29.866667-12.8-29.866667-25.6-4.266667-38.4-4.266667-68.266667 0-98.133334h-119.466667v93.866667c0 17.066667-8.533333 25.6-25.6 29.866667h-4.266666c-17.066667 0-29.866667-12.8-29.866667-29.866667V469.333333H375.466667c4.266667 21.333333 4.266667 46.933333 4.266666 76.8l-4.266666 21.333334c-4.266667 12.8-17.066667 25.6-29.866667 25.6h-8.533333c-8.533333 0-17.066667-4.266667-21.333334-12.8-4.266667-8.533333-8.533333-17.066667-4.266666-25.6 4.266667-38.4 4.266667-64 0-89.6H217.6L85.333333 652.8h605.866667c17.066667 0 29.866667 12.8 29.866667 29.866667s-12.8 29.866667-29.866667 29.866666h-640v251.733334c0 4.266667 0 4.266667 4.266667 8.533333 4.266667 0 4.266667 4.266667 8.533333 4.266667h891.733333c4.266667 0 12.8-4.266667 12.8-12.8v-251.733334h-132.266666c-17.066667 0-29.866667-12.8-29.866667-29.866666 0-8.533333 4.266667-17.066667 8.533333-21.333334 4.266667-4.266667 12.8-8.533333 21.333334-8.533333h98.133333L802.133333 469.333333zM102.4 128c42.666667-17.066667 89.6-8.533333 123.733333 25.6s42.666667 81.066667 25.6 123.733333-59.733333 72.533333-106.666666 72.533334C85.333333 349.866667 34.133333 298.666667 34.133333 234.666667 29.866667 187.733333 59.733333 145.066667 102.4 128z m772.266667-8.533333c64 0 115.2 51.2 115.2 115.2 0 46.933333-25.6 89.6-68.266667 106.666666-42.666667 17.066667-89.6 8.533333-123.733333-25.6s-42.666667-81.066667-25.6-123.733333c17.066667-46.933333 55.466667-72.533333 102.4-72.533333z m0 59.733333c-29.866667 0-51.2 25.6-51.2 51.2s21.333333 51.2 51.2 51.2 51.2-25.6 51.2-51.2-21.333333-51.2-51.2-51.2z m-733.866667 0c-29.866667 0-51.2 25.6-51.2 51.2 0 21.333333 12.8 42.666667 34.133333 46.933333 21.333333 8.533333 42.666667 4.266667 55.466667-12.8 17.066667-8.533333 21.333333-34.133333 12.8-51.2-8.533333-21.333333-29.866667-34.133333-51.2-34.133333zM512 0c72.533333 0 128 59.733333 128 132.266667 0 72.533333-59.733333 132.266667-132.266667 132.266666-34.133333 0-68.266667-12.8-93.866666-38.4S379.733333 170.666667 379.733333 132.266667C379.733333 59.733333 439.466667 0 512 0z m38.4 72.533333c-29.866667-17.066667-64-17.066667-89.6 8.533334-12.8 12.8-21.333333 29.866667-21.333333 51.2 0 34.133333 25.6 64 55.466666 72.533333 34.133333 8.533333 64-12.8 81.066667-42.666667s4.266667-68.266667-25.6-89.6z" fill="" p-id="5653"></path></svg>