<svg t="1754414317274" class="icon" viewBox="0 0 1024 1024" version="1.1" xmlns="http://www.w3.org/2000/svg" p-id="33236" width="32" height="32"><path d="M128.95952 748.169915c9.211394 4.093953 19.958021 7.676162 32.751624 12.793603 83.926037 26.610695 171.434283 39.404298 259.454273 38.892554 42.986507 0 86.484758-3.070465 128.959521-8.69965 25.075462-3.070465 44.009995-24.051974 44.521739-49.127436 0-9.723138-4.605697-18.934533-11.770115-25.075463-7.676162-6.14093-17.911044-8.69965-27.634183-7.164418l-24.563718 3.582209c-72.155922 8.69965-145.335332 8.69965-218.002999 0-24.563718-3.070465-48.615692-7.164418-72.155922-12.793603-25.075462-5.629185-49.63918-12.793603-73.17941-22.516741-10.746627-4.093953-20.981509-9.211394-31.216392-14.328836-30.704648-16.887556-49.127436-35.310345-51.686157-51.174413 0-1.023488 0-2.046977-0.511744-3.070465v-1.535232-82.902549c15.864068 9.723138 32.751624 17.911044 49.63918 24.563718l1.535233 0.511745c185.251374 64.991504 387.390305 64.991504 572.641679 0.511744 0.511744 0 1.535232-0.511744 2.046976-1.023489 16.887556-6.652674 33.775112-14.84058 49.127437-24.563718v23.028486c0 19.446277 12.793603 36.845577 31.728136 41.963019 12.281859 3.582209 25.587206 1.023488 35.822089-6.14093 9.723138-7.164418 15.864068-18.422789 15.864068-30.704648V183.716142c-4.605697-56.291854-54.244878-103.372314-141.753124-137.65917-89.555222-31.728136-184.227886-47.08046-279.412294-46.056972C219.538231 0 3.070465 66.526737 0 189.857071v644.285858c4.093953 122.818591 220.561719 189.345327 421.677161 189.345327 50.150925 0 99.790105-4.093953 149.429286-11.770115 7.676162-1.535232 14.328836-5.117441 19.958021-10.746627l4.093953-0.511744V972.825587c0-11.770115-5.117441-22.516742-14.328836-30.192903-8.69965-7.164418-20.469765-10.234883-31.728136-8.187906-41.963018 6.14093-84.437781 9.211394-126.912543 9.211394-84.949525 1.535232-169.89905-11.770115-250.242879-39.916042-53.733133-21.493253-87.508246-49.127436-87.508246-72.155922v-104.907546c13.817091 7.676162 29.169415 15.352324 44.521739 21.493253z m18.422789-406.324838c178.086957 58.850575 370.502749 58.850575 548.589705 0 5.117441-1.535232 9.723138-3.582209 13.817091-5.117441 17.3993-6.652674 33.775112-14.84058 49.639181-24.563718v97.231384c-2.558721 16.375812-22.516742 35.822089-54.756622 52.709646h-0.511744l-1.023488 0.511744c-32.751624 16.375812-67.550225 28.657671-103.372314 35.822089-0.511744 0-1.535232 0.511744-2.046977 0.511744h-0.511744c-57.315342 12.281859-116.165917 18.422789-175.016491 17.911044-58.850575 0.511744-117.701149-5.629185-175.016492-17.911044l-2.046977-0.511744C209.815092 491.274363 175.528236 479.504248 143.288356 464.151924l-3.582209-2.046976c-34.798601-17.911044-55.268366-39.404298-55.268366-57.315343V312.163918c15.864068 9.723138 32.751624 17.911044 49.639181 24.563718 2.558721 1.023488 4.605697 1.535232 6.652673 2.558721l6.652674 2.55872z m611.534233-145.847076v1.023488c-2.558721 16.375812-23.028486 35.822089-55.268366 53.22139-33.263368 16.887556-68.573713 29.169415-105.41929 36.845577-116.677661 24.563718-237.449275 24.051974-354.638681-1.023488-36.333833-7.676162-72.155922-19.958021-105.41929-36.845578-34.798601-17.911044-55.268366-39.404298-55.268366-56.803598 0-46.056972 131.518241-112.583708 337.751124-112.583708s330.586707 63.968016 337.751125 107.978011v4.093953c0.511744 1.535232 0.511744 3.070465 0.511744 4.093953z" fill="#515151" p-id="33237"></path><path d="M1020.929535 803.438281c-2.558721-9.723138-9.723138-17.3993-18.934533-19.958021l-6.652673-1.535233c-33.775112-10.234883-53.221389-44.521739-45.545228-78.808595l2.046977-6.14093c2.558721-9.723138-0.511744-19.958021-7.676162-26.610694-7.676162-5.629185-15.352324-10.746627-24.051974-15.352324-8.187906-5.117441-16.375812-9.211394-25.075462-12.793603-9.723138-3.070465-19.958021-0.511744-26.610695 6.652673l-4.605697 5.117442c-25.587206 24.051974-65.503248 24.051974-91.090455 0l-4.605697-4.605698c-7.164418-7.164418-17.3993-9.211394-26.610695-6.652673-8.69965 3.582209-17.3993 8.187906-25.587206 12.793603-8.187906 4.605697-16.375812 9.723138-24.051974 15.352324-7.164418 6.652674-10.234883 16.887556-7.676162 26.610694l2.046977 6.14093c4.093953 16.375812 1.535232 33.775112-7.164418 48.615692-8.187906 14.84058-22.516742 25.587206-38.38081 30.192904l-6.140929 1.535232c-9.723138 2.558721-16.887556 10.234883-18.934533 19.958021-2.046977 18.934533-2.046977 37.869065 0 56.803598 2.046977 9.723138 9.723138 17.3993 18.934533 19.958021l6.140929 1.535233c33.775112 9.723138 54.244878 44.521739 46.056972 78.808595l-1.535233 6.14093c-2.558721 9.723138 0.511744 19.958021 7.676162 26.610694 7.676162 5.629185 15.352324 10.746627 24.051974 15.352324 8.187906 5.117441 16.375812 9.211394 25.075463 12.793603 9.723138 3.070465 19.958021 0.511744 26.610694-6.652673l4.605697-4.605697c25.587206-24.051974 65.503248-24.051974 91.602199 0l4.605697 4.605697c7.164418 7.164418 17.3993 9.211394 26.610695 6.652673 17.3993-7.676162 33.775112-17.3993 49.127436-28.145927 7.164418-6.652674 10.234883-16.887556 7.676162-26.610694l-2.046976-6.14093c-8.187906-34.286857 12.281859-69.085457 46.056971-78.808595l6.14093-1.535233c9.723138-2.558721 16.887556-10.234883 18.934532-19.958021 1.023488-9.211394 1.535232-18.934533 1.535233-28.145927-0.511744-9.723138-1.023488-19.446277-2.558721-29.169415z m-202.650674 110.024987c-45.033483 0-81.367316-36.333833-81.367317-81.367316s36.333833-81.367316 81.367317-81.367316 81.367316 36.333833 81.367316 81.367316-36.333833 81.367316-81.367316 81.367316z" fill="#515151" p-id="33238"></path></svg>