<svg t="1754414434018" class="icon" viewBox="0 0 1195 1024" version="1.1" xmlns="http://www.w3.org/2000/svg" p-id="36962" width="32" height="32"><path d="M70.875277 365.713502c6.290272 0 11.410261 5.119989 11.410261 11.410261v336.017566c0 44.982761 36.132494 81.554111 80.895827 82.285538h549.959964c44.982761 0 81.554111-36.132494 82.285538-80.895827V377.123763c0-6.290272 5.119989-11.410261 11.410261-11.410261h59.465016c6.290272 0 11.410261 5.119989 11.410261 11.410261v336.017566A164.571076 164.571076 0 0 1 713.141329 877.712405h-548.570253A164.571076 164.571076 0 0 1 0 713.141329V377.123763C0 370.833491 5.119989 365.713502 11.410261 365.713502h59.465016z m368.566067-365.713502a123.976877 123.976877 0 0 1 40.594199 241.224626v306.175344h113.956327L438.856202 702.60878 283.720535 547.39997h113.956327V240.78577A124.05002 124.05002 0 0 1 439.368201 0zM123.976877 0a123.976877 123.976877 0 0 1 109.202052 182.783608c3.730278 4.022849 7.31427 8.411411 10.678834 13.165686 29.110795 40.959912 44.982761 107.154056 45.348474 204.506991v2.925708h108.251197L242.248624 558.663946l-155.062525-155.135668h119.661458V392.776301l-0.073143-3.071993-0.073143-2.925708-0.073142-2.925708-0.073143-2.925708-0.073143-2.925708-0.146285-2.925708V373.759199l-0.219428-3.51085-0.146286-3.510849v-1.389711l-0.219428-2.70628-0.146285-2.70628-0.219428-2.70628v-1.316569l-0.219428-2.633137-0.219428-2.633137-0.292571-3.291422-0.292571-3.145136-0.219428-2.559994-0.219428-2.486852-0.292571-2.486852-0.219428-2.413709-0.146286-1.243426-0.29257-2.413709-0.292571-2.413709a421.667668 421.667668 0 0 0-0.292571-2.340567l-0.292571-2.340566-0.219428-1.097141-0.292571-2.340566a382.902037 382.902037 0 0 0-0.365713-2.194281l-0.365714-2.267424-0.146285-1.170283-0.365714-2.194281a344.575262 344.575262 0 0 0-0.585141-3.218279l-0.365714-2.194281a313.782185 313.782185 0 0 0-1.243426-6.217129l-0.365713-2.047996a287.37767 287.37767 0 0 0-0.438856-1.974853l-0.438857-1.974853-0.29257-1.023998L196.388151 292.570802a172.397345 172.397345 0 0 0-13.165686-38.253633l-0.731427-1.243426a81.919824 81.919824 0 0 0-10.093693-14.847968A123.976877 123.976877 0 1 1 123.976877 0z m629.46608 0a123.976877 123.976877 0 1 1-48.420468 238.225775 80.603256 80.603256 0 0 0-9.654836 14.043399l-0.511999 0.804569-0.658284 1.243426a138.239704 138.239704 0 0 0-7.606841 18.578246l-0.585142 1.828568c-1.682282 5.119989-3.291422 10.678834-4.754275 16.822821L681.031684 292.570802l-0.365714 1.462854-0.511999 2.486851-0.438856 1.974853-0.438856 2.047996a310.417621 310.417621 0 0 0-0.950855 4.681133l-0.292571 1.609139-0.365714 2.121139-0.292571 1.609139-0.29257 1.609139-0.365714 2.194281-0.146285 1.170284-0.365714 2.194281-0.146285 1.170283-0.219428 1.09714-0.365714 2.925708-0.073142 0.511999-0.365714 2.340567-0.292571 2.340566-0.292571 2.413709-0.29257 2.413709-0.073143 1.243426-0.292571 2.413709-0.292571 2.486852-0.219428 2.486852-0.219428 2.559994-0.365713 3.803421-0.219428 2.633137-0.146286 2.633137-0.292571 3.291422-0.146285 3.364564-0.219428 2.70628-0.146286 3.437707v0.731427l-0.219428 4.169134-0.146285 2.779422v1.462854l-0.146285 2.852566-0.073143 2.925708-0.146286 2.925708v2.925708l-0.073142 2.925708v2.99885l-0.073143 2.998851v7.753126h119.661458l-155.135668 155.062525-155.135667-155.062525h108.251196v-2.925708c0.365714-97.426077 16.164537-163.693364 45.348475-204.580133a135.313996 135.313996 0 0 1 10.605691-13.165686A123.976877 123.976877 0 0 1 753.369814 0zM123.976877 82.285538a41.691339 41.691339 0 1 0 0 83.382678 41.691339 41.691339 0 0 0 0-83.382678z m629.46608 0a41.691339 41.691339 0 1 0 0 83.382678 41.691339 41.691339 0 0 0 0-83.382678z m-314.001613 0a41.691339 41.691339 0 1 0 0 83.382678 41.691339 41.691339 0 0 0 0-83.382678z" fill="#515151" p-id="36963"></path></svg>