<svg t="1754414563296" class="icon" viewBox="0 0 1024 1024" version="1.1" xmlns="http://www.w3.org/2000/svg" p-id="42481" width="32" height="32"><path d="M953.061651 70.986988C857.534535-24.488934 689.466196-21.314936 511.978248 66.635539c-177.436754-87.950474-345.556287-91.124473-441.032209 4.351449-79.349962 79.349962-90.458957 208.869578-41.722722 352.006671a108.991013 108.991013 0 0 0 14.846122 139.399966c-63.684744 155.781894-60.920294 302.860888 26.8766 390.606588 95.527116 95.527116 263.646649 92.353117 441.236983 4.35145 173.853208 86.107507 343.610933 92.865053 440.776242-4.300256 97.267696-97.267696 90.407763-267.076615 4.197869-441.032209 86.209894-173.955595 93.069827-343.815707-4.146675-441.03221z m-32.354307 849.505338c-115.083042 115.083042-397.108166 35.118757-624.816961-192.538844a38.190369 38.190369 0 0 0-54.009168 54.009168 1090.012513 1090.012513 0 0 0 187.880234 150.713734c-140.014288 57.183166-261.598908 52.678136-326.512297-12.184058-66.551581-66.551581-67.524258-189.006491-12.695994-324.413362 3.327579 0.307161 6.552771 1.02387 9.982738 1.02387a114.571107 114.571107 0 0 0 114.6223-114.571106c0-25.084827-8.293351-48.121913-22.013215-66.96113A1039.126151 1039.126151 0 0 1 295.941577 295.931333a38.190369 38.190369 0 1 0-54.009168-53.957975 1114.329437 1114.329437 0 0 0-111.601882 130.492293 110.98756 110.98756 0 0 0-29.692244-4.453836c-10.033931 0.153581-19.965474 1.586999-29.589857 4.300256-34.299661-115.083042-23.549021-213.067447 32.25192-268.919582C177.73573 28.905911 326.811272 33.922877 492.575903 120.337545c6.143223 3.020418 13.003155 4.249062 19.7607 3.583547a37.166498 37.166498 0 0 0 19.146378-3.685934c165.713437-86.312281 314.788979-91.329247 389.224363-16.893863 66.858742 66.858742 67.524258 189.979168 11.979285 326.102748a1049.467242 1049.467242 0 0 0-80.680994-110.424431c7.832609-13.822251 12.6448-29.538663 12.6448-46.534913a95.475922 95.475922 0 1 0-95.527116 95.475922c7.576642 0 14.846122-1.126258 21.962022-2.76445 38.548724 45.562236 72.694804 94.708019 101.9775 146.72064-37.62724 67.626645-88.360022 136.174774-150.662541 200.934581-3.788321-0.511935-7.576642-1.177451-11.46735-1.177451a95.527116 95.527116 0 1 0 78.530866 41.313174 1075.422359 1075.422359 0 0 0 123.222813-158.546344c55.49378 136.021193 54.879458 259.244006-11.979285 326.102748z" fill="#707070" p-id="42482"></path><path d="M511.978248 409.580956a102.387048 102.387048 0 1 0 0 204.774096 102.387048 102.387048 0 0 0 0-204.774096z" fill="#707070" p-id="42483"></path></svg>