<svg t="1754414725039" class="icon" viewBox="0 0 1024 1024" version="1.1" xmlns="http://www.w3.org/2000/svg" p-id="47789" width="32" height="32"><path d="M720.384 485.0688c60.7744 0 117.9648 23.7056 160.9728 66.6624a226.4064 226.4064 0 0 1 66.6624 160.9728c0 47.0016-14.848 93.5424-41.984 131.84l83.8656 83.1488a44.032 44.032 0 1 1-61.952 62.464l-85.8112-84.992a226.6624 226.6624 0 0 1-121.4976 35.2768 228.2496 228.2496 0 0 1-219.5968-165.7344 225.6384 225.6384 0 0 1 44.6464-208.384 228.864 228.864 0 0 1 174.6432-81.2544zM403.456 25.6c185.2416 0 382.0544 62.9248 382.0544 179.5072 0 5.12-0.4608 10.24-1.024 14.8992l-0.9728 180.1216c0.4608 1.6384 0.4608 3.328 0.4608 5.9904a39.6288 39.6288 0 0 1-39.5776 39.6288 39.0144 39.0144 0 0 1-38.6048-32.1024l-0.5632-7.2704V318.8736a312.4736 312.4736 0 0 1-60.0576 27.9552c-69.0688 24.9856-154.9312 38.7584-241.7152 38.7584-86.272 0-172.0832-13.7728-241.664-38.7584a406.1696 406.1696 0 0 1-60.6208-28.5696v87.3472c0 17.664 23.1936 38.9632 61.952 56.9344 40.192 18.432 92.2624 31.8976 150.4768 38.8096A730.624 730.624 0 0 0 404.48 506.88c30.6176 0 62.0544-1.8944 90.88-5.5296 8.2432 0 13.4144 3.5328 16.0768 9.1136a15.2064 15.2064 0 0 1-1.8432 16.384c-7.8336 11.3152-15.3088 22.272-22.3232 33.792a50.8416 50.8416 0 0 1-40.0896 24.0128c-15.4112 0.512-29.0304 0.9728-43.1616 0.9728-87.808 0-174.1312-13.9776-243.2512-39.2704a383.5904 383.5904 0 0 1-59.0848-28.0576v83.8656c0 17.7152 24.32 39.68 63.3856 57.3952 39.6288 18.4832 95.0272 32.256 156.0576 38.8608 25.344 1.9456 53.3504 3.9424 82.3296 3.9424h6.5024c20.4288 0 38.912 16.128 42.1376 36.7104a37.1712 37.1712 0 0 1-8.1408 29.5424 37.0688 37.0688 0 0 1-27.392 13.056H403.456c-85.6576 0-173.568-14.1312-241.152-38.8096a402.432 402.432 0 0 1-61.1328-28.6208v85.9136c0 41.0624 117.9648 100.7616 302.848 100.7616 32.6144 0 65.8432-2.1504 98.816-6.5024a44.6976 44.6976 0 0 1 6.3488-0.4608 49.664 49.664 0 0 1 32.1024 12.6976c11.6224 11.0592 15.5136 25.3952 11.3664 39.0144a35.328 35.328 0 0 1-28.8768 24.9856c-40.2944 5.632-80.7936 8.5504-120.32 8.5504-185.1904 0-382.0032-63.1296-382.0032-180.0192L20.48 205.6192C21.4528 88.6784 218.2656 25.6 403.456 25.6z m351.744 551.7312a140.032 140.032 0 0 0-170.2912 170.0864 139.1616 139.1616 0 0 0 100.608 100.7616 140.0832 140.0832 0 0 0 170.2912-170.1376 139.1616 139.1616 0 0 0-100.608-100.7104zM403.456 104.3456c-181.9648 0-302.7968 60.6208-302.7968 100.7616 0 17.8176 24.1152 39.8336 62.9248 57.3952 40.96 18.8416 94.5664 32.256 154.9824 38.8096 31.7952 3.072 58.7776 4.5056 84.8896 4.5056 30.5152 0 59.0848-1.4848 84.8896-4.5056 60.16-6.4 113.7664-19.8656 154.9824-38.8096 35.2768-15.7184 58.624-35.1744 62.5152-52.0704 0.4608-1.6896 0.4608-3.4304 0.4608-5.3248 0-41.0624-118.016-100.7616-302.848-100.7616z" p-id="47790"></path></svg>