<?xml version="1.0" standalone="no"?><!DOCTYPE svg PUBLIC "-//W3C//DTD SVG 1.1//EN" "http://www.w3.org/Graphics/SVG/1.1/DTD/svg11.dtd"><svg t="1776497657605" class="icon" viewBox="0 0 1024 1024" version="1.1" xmlns="http://www.w3.org/2000/svg" p-id="15311" width="64" height="64" xmlns:xlink="http://www.w3.org/1999/xlink"><path d="M244.608 178.304h229.312s88.576-7.104 120.448 38.848a298.048 298.048 0 0 1 42.56 97.664h32l-14.208-215.424H48.896v32l311.808 350.272-311.808 394.816v35.328h620.032l38.976-240.128-32-7.104a310.848 310.848 0 0 1-58.176 102.784c-42.56 49.472-209.088 42.304-209.088 42.304H238.208l266.368-335.808-260.032-295.36z m546.88 260.416l-12.352-31.36-16-35.52c-11.392-25.6-20.544-34.496-30.976-34.496-15.872 0-28.352 14.72-37.44 44.288-6.4-2.432-12.8-23.168-12.8-27.84a76.16 76.16 0 0 1 23.936-47.232 64.576 64.576 0 0 1 43.072-26.624q37.312 0 77.312 107.136l4.544 13.824 7.744-12.288q71.104-112.384 119.808-112.448a102.4 102.4 0 0 1 32 11.136l-40.192 51.2a54.464 54.464 0 0 0-12.032-2.624c-24.448 0-52.096 29.184-85.888 85.248l-7.424 14.464 4.224 12.8c29.248 80.448 53.312 114.176 72.384 114.176 17.472 0 30.784-12.8 39.872-37.312a27.008 27.008 0 0 1 9.344 19.2 69.632 69.632 0 0 1-25.216 46.72 67.776 67.776 0 0 1-48.448 16.576c-25.6 0-53.888-33.024-80.896-105.6l-5.056-14.912-8.768 16.384c-45.44 77.632-91.264 114.56-132.672 114.56a69.184 69.184 0 0 1-39.68-14.336l43.008-51.2a32.32 32.32 0 0 0 23.424 9.984c25.152 0 51.2-30.336 82.368-81.088l12.8-22.336 4.672-6.912-4.672-12.8z" p-id="15312"></path></svg>