<svg t="1754382071204" class="icon" viewBox="0 0 1024 1024" version="1.1" xmlns="http://www.w3.org/2000/svg" p-id="36640" width="64" height="64"><path d="M89.6 204.8v153.6q0 47.7184 33.7408 81.4592 33.7408 33.7408 81.4592 33.7408h153.6q47.7184 0 81.4592-33.7408Q473.6 406.1184 473.6 358.4V204.8q0-47.7184-33.7408-81.4592Q406.1184 89.6 358.4 89.6H204.8q-47.7184 0-81.4592 33.7408Q89.6 157.0816 89.6 204.8z m88.064 180.736q-11.264-11.264-11.264-27.136V204.8q0-15.872 11.264-27.136 11.264-11.264 27.136-11.264h153.6q15.872 0 27.136 11.264 11.264 11.264 11.264 27.136v153.6q0 15.872-11.264 27.136-11.264 11.264-27.136 11.264H204.8q-15.872 0-27.136-11.264zM89.6 665.6v153.6q0 47.7184 33.7408 81.4592 33.7408 33.7408 81.4592 33.7408h153.6q47.7184 0 81.4592-33.7408 33.7408-33.7408 33.7408-81.4592v-153.6q0-47.7184-33.7408-81.4592Q406.1184 550.4 358.4 550.4H204.8q-47.7184 0-81.4592 33.7408-33.7408 33.792-33.7408 81.4592z m88.064 180.736q-11.264-11.264-11.264-27.136v-153.6q0-15.872 11.264-27.136 11.264-11.264 27.136-11.264h153.6q15.872 0 27.136 11.264 11.264 11.264 11.264 27.136v153.6q0 15.872-11.264 27.136-11.264 11.264-27.136 11.264H204.8q-15.872 0-27.136-11.264zM550.4 665.6v153.6q0 47.7184 33.7408 81.4592 33.7408 33.7408 81.4592 33.7408h153.6q47.7184 0 81.4592-33.7408 33.7408-33.7408 33.7408-81.4592v-153.6q0-47.7184-33.7408-81.4592-33.7408-33.7408-81.4592-33.7408h-153.6q-47.7184 0-81.4592 33.7408-33.7408 33.792-33.7408 81.4592z m88.064 180.736q-11.264-11.264-11.264-27.136v-153.6q0-15.872 11.264-27.136 11.264-11.264 27.136-11.264h153.6q15.872 0 27.136 11.264 11.264 11.264 11.264 27.136v153.6q0 15.872-11.264 27.136-11.264 11.264-27.136 11.264h-153.6q-15.872 0-27.136-11.264z m-86.1184-483.2768l108.5952 108.5952q33.792 33.792 81.4592 33.792 47.7184 0 81.4592-33.792l108.5952-108.5952q33.792-33.7408 33.792-81.4592 0-47.7184-33.792-81.4592l-108.544-108.5952q-33.792-33.792-81.5104-33.792t-81.408 33.792l-108.6464 108.5952q-33.792 33.7408-33.792 81.4592 0 47.7184 33.792 81.4592z m190.0544 65.536q-15.872 0-27.136-11.264l-108.6464-108.544q-11.264-11.264-11.264-27.1872 0-15.872 11.264-27.136l108.6464-108.6464q11.264-11.264 27.136-11.264 15.872 0 27.136 11.264l108.6464 108.6464q11.264 11.264 11.264 27.136 0 15.872-11.264 27.136L769.536 417.3824q-11.264 11.264-27.136 11.264z" p-id="36641" fill="#707070"></path></svg>