<svg t="1777088762588" class="icon" viewBox="0 0 1024 1024" version="1.1" xmlns="http://www.w3.org/2000/svg" p-id="8906" width="64" height="64"><path d="M871.04 211.2L576 42.24A92.16 92.16 0 0 0 439.68 121.6v289.28a32 32 0 0 0 32 32 32 32 0 0 0 32-32V121.6a28.16 28.16 0 0 1 42.24-24.32l292.48 168.96a28.8 28.8 0 0 1 14.08 24.32V704a13.44 13.44 0 0 1-6.4 11.52l-360.32 211.2a28.16 28.16 0 0 1-28.16 0l-292.48-168.96a28.16 28.16 0 0 1 0-49.28 32 32 0 1 0-32-55.68 92.16 92.16 0 0 0 0 160l292.48 168.96a92.8 92.8 0 0 0 92.16 0l360.32-208a77.44 77.44 0 0 0 38.4-64V290.56a92.8 92.8 0 0 0-45.44-79.36z"  p-id="8907"></path><path d="M224.64 556.16L300.16 512l103.68 167.04a32 32 0 0 0 42.24 11.52l303.36-160.64a32 32 0 0 0-30.08-56.32L442.88 620.16 337.92 452.48a32 32 0 0 0-42.88-10.88L192 500.48a32 32 0 0 0 32 55.68z" p-id="8908"></path></svg>